<?xml version="1.0" encoding="utf-8"?>
<!-- Generator: Adobe Illustrator 28.7.1, SVG Export Plug-In . SVG Version: 9.03 Build 54978)  -->
<svg version="1.1" id="Layer_1" xmlns="http://www.w3.org/2000/svg" xmlns:xlink="http://www.w3.org/1999/xlink" x="0px" y="0px"
	 viewBox="0 0 500 500" style="enable-background:new 0 0 500 500;" xml:space="preserve">
<style type="text/css">
	.st0{fill:#D6895D;}
	.st1{fill:#94B8FF;}
	.st2{fill:#4C4C4C;}
	.st3{fill:#002060;}
	.st4{fill:#969696;}
	.st5{fill:#FFFFFF;}
</style>
<g>
	<g>
		<path class="st0" d="M259.8,371.6c-1.4,0.1-2.8,0.4-4.2,0.4c-64.4-1.1-122.2-50.1-133.7-114c-7.4-40.8,0.8-78.4,25.7-112
			c1.4-1.9,2.5-4.3,3.1-6.6c4.2-15.2,13.1-26.1,28.5-30.7c6.3-1.9,13-2.6,20.7-4.1C188,121,176.6,135.8,158,143
			c-3.4,1.3-6.8,4.2-9,7.2c-60.5,83-11.4,200.9,90,216.6c5.7,0.9,11.6,1.2,17.4,1.9c1.3,0.2,2.5,0.7,3.8,1
			C260,370.4,259.9,371,259.8,371.6z"/>
		<path class="st0" d="M338.3,105.4c21.1,0.9,38.8,6.8,46.5,27.4c3.2,8.4,7.7,15.6,12.4,23c37.9,59.7,25,139.1-29.9,184.1
			c-24.5,20.1-52.7,30.7-84.4,31.9c-1.6,0.1-3.3-0.4-4.9-0.6c0-0.5-0.1-1.1-0.1-1.6c1.6-0.4,3.1-1,4.7-1
			c90.9-4.5,140.9-84.6,132-154.1c-3.2-24.8-12.3-47.3-27.5-67.2c-1.3-1.7-3.5-3.1-5.5-3.9c-13.4-5.4-24.8-13.5-33.2-25.5
			C345.5,113.9,342.1,110.1,338.3,105.4z"/>
		<path class="st0" d="M443.9,160.9c2.1,13.3,5.7,26.4,1.8,39.8c-3.3,11.3-12.4,18.9-22.3,18.9C421.6,197.1,424.8,176.5,443.9,160.9
			z"/>
		<path class="st0" d="M230.5,374.3c-2.4,10.8-11.3,18.4-23.9,19.6c-13.1,1.3-25.1-3.4-37.6-7.3
			C187.5,371.8,208.7,367.6,230.5,374.3z"/>
		<path class="st0" d="M119.4,345.3c23.8-10.3,43.4-3.2,62.8,9c-3.1,5.3-7.6,8.3-13.1,10c-7.3,2.1-14.8,2-21.4-1.6
			C138.2,357.7,129.3,351.5,119.4,345.3z"/>
		<path class="st0" d="M127.5,169.1c-10.1-5.1-15.5-16.8-13.3-28.9c2.2-12.4,9-22.7,15.3-33.3C140.1,123.1,139.2,151.3,127.5,169.1z
			"/>
		<path class="st0" d="M89.2,288.2c25-1,40.9,12.6,54.4,30.5c-8.3,6.6-20.8,6.9-30.3-0.4c-5.8-4.5-10.5-10.5-15.2-16.3
			C94.7,297.8,92.2,292.9,89.2,288.2z"/>
		<path class="st0" d="M418.3,344.3c-11.3,8.6-21.1,17.9-34.7,20.6c-8.9,1.8-17.3,0.2-24.2-6.1c-1.3-1.2-2.3-2.7-3.4-4.1
			C373.8,340.9,391.9,337.9,418.3,344.3z"/>
		<path class="st0" d="M448.8,288.1c-6.6,10.7-12.4,21.9-22.7,29.5c-7.4,5.5-15.9,7.6-25,4.9c-2.3-0.7-4.4-2-7-3.3
			C408.1,300.6,424.1,287.2,448.8,288.1z"/>
		<path class="st0" d="M410,169.1c-9.5-20.7-13.9-41.2-1.4-62.5c6.4,11.5,14,22.2,15.5,35.8C425.3,154.1,419.7,164.9,410,169.1z"/>
		<path class="st0" d="M458.1,224.1c-3.5,14.4-4.1,29.8-15.7,41.1c-6.7,6.5-14.6,9.5-24.6,6.9C424.5,250.4,434.2,231.7,458.1,224.1z
			"/>
		<path class="st0" d="M307.7,374c22.2-4.6,43-4.2,60.9,12.8c-13,3.9-25.7,9.1-39.7,6.7C317.5,391.6,309,383.7,307.7,374z"/>
		<path class="st0" d="M79,223.8c24.8,8,34.6,26.4,41.6,49.3c-5.2-0.4-9.7-0.1-13.8-1.2c-8.2-2.3-14.7-7.8-17.8-15.7
			C85.1,245.9,82.4,235.2,79,223.8z"/>
		<path class="st0" d="M114.3,220c-8-0.7-13.6-4.8-17.8-11c-4.1-5.9-6.2-12.6-5.7-19.8c0.7-9.4,1.8-18.8,2.8-28.6
			C109.5,171.5,118.5,197.9,114.3,220z"/>
		<path class="st0" d="M348.6,343.2c-9.9-18.1-2.8-33.8,5.8-49.1C369.7,309.6,369.4,329.1,348.6,343.2z"/>
		<path class="st0" d="M371.7,262.5c24.5,13,23.4,32.6,11.9,48.4C368,297.7,369.4,280.4,371.7,262.5z"/>
		<path class="st0" d="M128,221.1c2.7-24.9,18.8-33.9,40.5-28.3C159,207.7,148.6,221.2,128,221.1z"/>
		<path class="st0" d="M139.8,175c11.2-21.1,28.9-25.8,48.4-12.1C173.9,173.4,159.2,182.4,139.8,175z"/>
		<path class="st0" d="M398,175.1c-19.1,7.3-33.7-1.6-47.9-12C367.5,149.8,387.1,152.8,398,175.1z"/>
		<path class="st0" d="M376.8,227c24.6,5.3,36.1,22.3,28,41.3C385.6,261.4,380.7,244.8,376.8,227z"/>
		<path class="st0" d="M210.5,316.6c18.7,16.7,25,25.6,22.9,43.9C213.5,360.2,203,340.3,210.5,316.6z"/>
		<path class="st0" d="M166.2,262.5c2.5,17.9,3.8,35.1-11.8,48.4C143.8,296.7,140.6,276.2,166.2,262.5z"/>
		<path class="st0" d="M327.5,316.8c9.8,26-4.4,40.2-23,44.1C301.6,340.7,313.9,328.6,327.5,316.8z"/>
		<path class="st0" d="M369.4,192.6c23.2-5.4,37.9,4.4,40.6,27.7C398.3,224.1,380.3,211.8,369.4,192.6z"/>
		<path class="st0" d="M133.1,268c-8.2-18.4,3.7-36,27.7-40.9C161,244.7,147.6,264.5,133.1,268z"/>
		<path class="st0" d="M183.3,293.4c8.7,15.8,15.8,31.5,6.4,49.2C171.4,336.8,168.3,313.2,183.3,293.4z"/>
	</g>
</g>
<path class="st1" d="M292.2,185.6c-19.7,0-35.6,16-35.6,35.6s16,35.6,35.6,35.6s35.6-16,35.6-35.6S311.9,185.6,292.2,185.6z
	 M288.3,245.6c-15.6,0-28.2-12.6-28.2-28.2s12.6-28.2,28.2-28.2s28.2,12.6,28.2,28.2S303.9,245.6,288.3,245.6z"/>
<path class="st1" d="M292.2,185.6c-19.7,0-35.6,16-35.6,35.6s16,35.6,35.6,35.6s35.6-16,35.6-35.6S311.9,185.6,292.2,185.6z
	 M288.3,245.6c-15.6,0-28.2-12.6-28.2-28.2s12.6-28.2,28.2-28.2s28.2,12.6,28.2,28.2S303.9,245.6,288.3,245.6z"/>
<path class="st2" d="M256.6,171.2c0.3,19.7,16.5,35.4,36.2,35.1c19.7-0.3,35.4-16.5,35.1-36.2s-16.5-35.4-36.2-35.1
	C272,135.3,256.3,151.5,256.6,171.2z M316.6,174.2c0.2,15.6-12.2,28.4-27.8,28.7c-15.6,0.2-28.4-12.2-28.7-27.8s12.2-28.4,27.8-28.7
	C303.6,146.1,316.4,158.6,316.6,174.2z"/>
<circle class="st2" cx="298.4" cy="167.4" r="11.7"/>
<path class="st3" d="M242.2,207.3c19.7,0,35.6-16,35.6-35.6s-16-35.6-35.6-35.6s-35.6,16-35.6,35.6S222.5,207.3,242.2,207.3z
	 M246.1,147.3c15.6,0,28.2,12.6,28.2,28.2s-12.6,28.2-28.2,28.2s-28.2-12.6-28.2-28.2S230.5,147.3,246.1,147.3z"/>
<path class="st4" d="M277.8,221.8c-0.3-19.7-16.5-35.4-36.2-35.1c-19.7,0.3-35.4,16.5-35.1,36.2c0.3,19.7,16.5,35.4,36.2,35.1
	C262.4,257.7,278.1,241.5,277.8,221.8z M217.8,218.7c-0.2-15.6,12.2-28.4,27.8-28.7c15.6-0.2,28.4,12.2,28.7,27.8
	c0.2,15.6-12.2,28.4-27.8,28.7C230.8,246.8,218,234.3,217.8,218.7z"/>
<circle class="st3" cx="238.9" cy="164.9" r="11.7"/>
<circle class="st4" cx="235.5" cy="226" r="11.7"/>
<path class="st1" d="M292.2,185.6c-19.7,0-35.6,16-35.6,35.6s16,35.6,35.6,35.6s35.6-16,35.6-35.6S311.9,185.6,292.2,185.6z
	 M288.3,245.6c-15.6,0-28.2-12.6-28.2-28.2s12.6-28.2,28.2-28.2s28.2,12.6,28.2,28.2S303.9,245.6,288.3,245.6z"/>
<circle class="st1" cx="296.3" cy="227.8" r="11.7"/>
<circle class="st5" cx="266.9" cy="196.8" r="5.9"/>
<g>
	<path class="st4" d="M196.9,269h1.8v12.8h-1.8V269z"/>
	<path class="st4" d="M213.2,269v12.8h-1.5l-7.7-9.5v9.5h-1.8V269h1.5l7.7,9.5V269H213.2z"/>
	<path class="st4" d="M219.2,270.6h-4.4V269h10.6v1.6H221v11.2h-1.8V270.6z"/>
	<path class="st4" d="M236.3,280.2v1.6H227V269h9v1.6h-7.2v3.9h6.4v1.6h-6.4v4.1H236.3z"/>
	<path class="st4" d="M247.4,281.8l-2.8-3.9c-0.3,0-0.5,0-0.8,0h-3.2v3.9h-1.8V269h5c3.3,0,5.3,1.7,5.3,4.5c0,2-1,3.4-2.8,4l3,4.3
		H247.4z M247.4,273.5c0-1.8-1.2-2.9-3.6-2.9h-3.1v5.7h3.1C246.1,276.4,247.4,275.3,247.4,273.5z"/>
	<path class="st4" d="M262.8,269v12.8h-1.5l-7.7-9.5v9.5h-1.8V269h1.5l7.7,9.5V269H262.8z"/>
	<path class="st4" d="M274.4,278.6h-6.8l-1.4,3.2h-1.9l5.8-12.8h1.8l5.8,12.8h-1.9L274.4,278.6z M273.7,277.2l-2.8-6.3l-2.8,6.3
		H273.7z"/>
	<path class="st4" d="M281.1,270.6h-4.4V269h10.6v1.6h-4.4v11.2h-1.8V270.6z"/>
	<path class="st4" d="M288.9,269h1.8v12.8h-1.8V269z"/>
	<path class="st4" d="M293.2,275.4c0-3.7,2.9-6.5,6.8-6.5c3.9,0,6.8,2.8,6.8,6.5c0,3.8-2.9,6.5-6.8,6.5
		C296.1,282,293.2,279.2,293.2,275.4z M304.9,275.4c0-2.8-2.1-4.9-4.9-4.9c-2.9,0-5,2.1-5,4.9c0,2.8,2.1,4.9,5,4.9
		C302.8,280.3,304.9,278.3,304.9,275.4z"/>
	<path class="st4" d="M320.2,269v12.8h-1.5l-7.7-9.5v9.5h-1.8V269h1.5l7.7,9.5V269H320.2z"/>
	<path class="st4" d="M331.8,278.6H325l-1.4,3.2h-1.9l5.8-12.8h1.8l5.8,12.8h-1.9L331.8,278.6z M331.1,277.2l-2.8-6.3l-2.8,6.3
		H331.1z"/>
	<path class="st4" d="M336.6,269h1.8v11.2h6.9v1.6h-8.7V269z"/>
	<path class="st4" d="M198.6,288.5h-4.4v-1.6h10.6v1.6h-4.4v11.2h-1.8V288.5z"/>
	<path class="st4" d="M214.9,299.7l-2.8-3.9c-0.3,0-0.5,0-0.8,0h-3.2v3.9h-1.8v-12.8h5c3.3,0,5.3,1.7,5.3,4.5c0,2-1,3.4-2.8,4l3,4.3
		H214.9z M214.8,291.4c0-1.8-1.2-2.9-3.6-2.9h-3.1v5.7h3.1C213.6,294.3,214.8,293.2,214.8,291.4z"/>
	<path class="st4" d="M227.4,296.5h-6.8l-1.4,3.2h-1.9l5.8-12.8h1.8l5.8,12.8h-1.9L227.4,296.5z M226.8,295.1l-2.8-6.3l-2.8,6.3
		H226.8z"/>
	<path class="st4" d="M232.3,286.9h5.4c4.1,0,6.9,2.6,6.9,6.4s-2.8,6.4-6.9,6.4h-5.4V286.9z M237.5,298.1c3.2,0,5.2-1.9,5.2-4.8
		s-2-4.8-5.2-4.8h-3.4v9.6H237.5z"/>
	<path class="st4" d="M256.2,298.1v1.6H247v-12.8h9v1.6h-7.2v3.9h6.4v1.6h-6.4v4.1H256.2z"/>
	<path class="st4" d="M262.3,293.3c0-3.8,2.9-6.5,6.8-6.5c2,0,3.7,0.7,4.9,2l-1.2,1.2c-1-1-2.2-1.5-3.6-1.5c-2.9,0-5,2.1-5,4.9
		c0,2.8,2.1,4.9,5,4.9c1.4,0,2.6-0.5,3.6-1.5l1.2,1.1c-1.2,1.3-2.9,2-4.9,2C265.2,299.9,262.3,297.1,262.3,293.3z"/>
	<path class="st4" d="M274.9,293.3c0-3.7,2.9-6.5,6.8-6.5c3.9,0,6.8,2.8,6.8,6.5c0,3.8-2.9,6.5-6.8,6.5
		C277.8,299.9,274.9,297.1,274.9,293.3z M286.6,293.3c0-2.8-2.1-4.9-4.9-4.9c-2.9,0-5,2.1-5,4.9c0,2.8,2.1,4.9,5,4.9
		C284.5,298.2,286.6,296.2,286.6,293.3z"/>
	<path class="st4" d="M290.8,294.2v-7.3h1.8v7.2c0,2.8,1.3,4.1,3.6,4.1c2.3,0,3.6-1.3,3.6-4.1v-7.2h1.8v7.3c0,3.7-2,5.7-5.4,5.7
		C292.8,299.9,290.8,297.9,290.8,294.2z"/>
	<path class="st4" d="M315.9,286.9v12.8h-1.5l-7.7-9.5v9.5H305v-12.8h1.5l7.7,9.5v-9.5H315.9z"/>
	<path class="st4" d="M318.4,293.3c0-3.8,2.9-6.5,6.8-6.5c2,0,3.7,0.7,4.9,2l-1.2,1.2c-1-1-2.2-1.5-3.6-1.5c-2.9,0-5,2.1-5,4.9
		c0,2.8,2.1,4.9,5,4.9c1.4,0,2.6-0.5,3.6-1.5l1.2,1.1c-1.2,1.3-2.9,2-4.9,2C321.3,299.9,318.4,297.1,318.4,293.3z"/>
	<path class="st4" d="M332.2,286.9h1.8v12.8h-1.8V286.9z"/>
	<path class="st4" d="M337.5,286.9h1.8v11.2h6.9v1.6h-8.7V286.9z"/>
</g>
</svg>