<?xml version="1.0" encoding="utf-8"?>
<!-- Generator: Adobe Illustrator 28.7.1, SVG Export Plug-In . SVG Version: 9.03 Build 54978)  -->
<svg version="1.1" id="Layer_1" xmlns="http://www.w3.org/2000/svg" xmlns:xlink="http://www.w3.org/1999/xlink" x="0px" y="0px"
	 viewBox="0 0 841.9 595.3" style="enable-background:new 0 0 841.9 595.3;" xml:space="preserve">
<style type="text/css">
	.st0{fill:#1A6135;}
	.st1{fill:#FFFFFF;}
</style>
<g>
	<path class="st0" d="M557.9,74.6L557.9,74.6C557.9,74.6,557.9,74.6,557.9,74.6C557.9,74.6,557.9,74.6,557.9,74.6L557.9,74.6
		C453.6-2.8,257.8,30.4,270.6,192l0,0c0,0,0,0,0,0c0,0,0,0,0,0l0,0C374.8,269.5,570.7,236.3,557.9,74.6z"/>
	<path class="st0" d="M322.4,167.1c-1.6,0-2.8-0.7-4.1-1.4c-2.3-1.3-6.2-3.5-16.8-3.5c-4.6,0-8.8,0.5-11.6,0.8
		c-1.6,0.2-2.6,0.3-3.3,0.3c-3.1,0-5.2-1.9-5.2-5c0-5.1,3.1-15.8,6.9-26.7c-0.5,0.2-1.1,0.3-1.8,0.3c-4.8,0-19.7-8.1-19.7-22.1
		c0-8.8,8.6-16.2,18.7-16.2c6.8,0,12.3,1.8,17.3,3.8c6.6-10.6,16.3-16.2,28.2-16.2c12.7,0,21.6,6.9,21.6,16.9
		c0,12-10.9,20.4-26.6,20.4c-3.1,0-5.9-0.2-8.6-0.6c-4.7,11.8-9.2,24-10.6,28.7c1.4-0.3,3.4-0.7,5.3-1.1c7-1.5,15.7-3.5,20.6-3.5
		c3.7,0,5.4,2.2,5.4,4.4c0,1.6-0.7,2.7-1.7,4c-2.8,3.6-7,9.7-9.7,14.2l-0.1,0.1l-0.1,0.1C326,165.4,324.8,167.1,322.4,167.1z
		 M294.9,113.9c-7.2,0.4-7.2,4-7.2,5.4c0,2.6,1.1,4.4,1.9,5.7c0.2,0.4,0.4,0.7,0.6,1.1C291.8,121.8,293.4,117.6,294.9,113.9z
		 M323.3,103.9c0.6,0,1.1,0,1.8,0c4.6,0,7.5-4.6,7.5-7c0-2-0.7-2-1.6-2C330,94.9,327.4,95.9,323.3,103.9z"/>
	<path class="st1" d="M303.8,100.8c6-10.9,15-17,27-17c10,0,18.8,4.9,18.8,14.1c0,11.7-11.5,17.6-23.8,17.6c-4.1,0-7.4-0.3-10.3-0.9
		c-5.2,12.8-12,31.3-12,33.6c0,0.9,0.3,1.4,1.3,1.4c2.5,0,20.5-4.9,27.8-4.9c1.9,0,2.6,0.8,2.6,1.6c0,0.7-0.2,1.1-1.1,2.4
		c-2.6,3.4-7,9.6-9.9,14.4c-0.6,0.8-1,1.1-1.8,1.1c-3,0-4.7-4.9-21-4.9c-7.1,0-13.2,1-14.9,1c-1.7,0-2.4-0.8-2.4-2.2
		c0-8,8.6-32.2,14.9-47.1c-0.9,0-1.8-0.1-2.7-0.1c-8,0-11.3,3.3-11.3,8.2c0,4.9,3,7.6,3,8.6c0,0.8-0.5,1.1-1.5,1.1
		c-3.6,0-17-7-17-19.4c0-7.3,7.3-13.4,15.9-13.4C292.6,96.3,298.3,98.4,303.8,100.8z M319.1,106.2c1.8,0.3,3.9,0.5,6,0.5
		c6.2,0,10.3-5.8,10.3-9.7c0-3.3-1.7-4.8-4.4-4.8C327.7,92.1,323.9,95.6,319.1,106.2z"/>
	<path class="st0" d="M378.6,163.2c-7.6,0-12-3.7-14.1-5.8c0,0-0.1,0.1-0.1,0.1c-2.8,1.9-8.6,5.8-17.1,5.8
		c-7.5,0-12.3-5.1-12.3-13.1c0-16,15.6-33.8,36.6-33.8c10.4,0,19.7,6.2,19.7,11.1c0,1.3-0.7,2.7-2.1,5c-2.6,4.5-6.8,12-6.8,21.4
		c0,1.7,0.2,2.3,0.4,2.9c0.2,0.6,0.4,1.3,0.4,2.2C383.1,161.1,381.5,163.2,378.6,163.2z M368.5,130c-4.7,2.2-10.8,10.7-11.4,16.4
		C360.4,144.9,366.5,134.9,368.5,130z"/>
	<path class="st1" d="M378.6,160.4c-9.3,0-12.9-6.4-13.7-6.4c-1.4,0-7.2,6.4-17.6,6.4c-5.8,0-9.5-3.9-9.5-10.3
		c0-14.9,15.1-31,33.8-31c9.9,0,17,5.7,17,8.4c0,2.2-8.9,12.4-8.9,26.5c0,3.4,0.8,3.8,0.8,5.2C380.3,159.9,379.7,160.4,378.6,160.4z
		 M354.3,147.4c0,1.1,0.7,2.1,2.1,2.1c6.1,0,15.6-18.7,15.6-21.2c0-1-0.5-1.5-1.4-1.5C363.6,126.7,354.3,139.9,354.3,147.4z"/>
	<path class="st0" d="M399,163.9c-11.3,0-18.2-6.4-18.2-16.6c0-14.8,17.8-31,34.1-31c14.7,0,15.8,8.9,15.8,11.6
		c0,8.2-9.1,14.3-17.3,14.3c-2.6,0-4.6-1.8-4.6-4c0-1.7,0.8-2.8,1.7-4c0.2-0.3,0.5-0.7,0.9-1.2c1.1-1.5,1.7-2.7,2-3.6
		c-3.2,1.4-7.7,8.8-7.7,14.2c0,3.1,1,3.6,3.4,3.6c4.2,0,6.7-2,8.6-3.4c1.3-1,2.4-1.9,3.9-1.9c2.4,0,4.5,2.2,4.5,4.7
		C426,150.8,416.1,163.9,399,163.9z"/>
	<path class="st1" d="M399,161.1c-10.1,0-15.5-5.4-15.5-13.9c0-13.2,16.3-28.2,31.3-28.2c9.1,0,13.1,3.8,13.1,8.8
		c0,6.8-8.1,11.6-14.6,11.6c-1,0-1.8-0.6-1.8-1.3c0-1,0.7-1.6,2.1-3.6c1.3-1.7,2.7-4.2,2.7-6.2c0-1.4-0.7-2.1-2.1-2.1
		c-5.2,0-11.3,10.4-11.3,17.2c0,4.6,2.2,6.4,6.2,6.4c7.6,0,10.8-5.3,12.5-5.3c0.8,0,1.7,0.9,1.7,1.9
		C423.2,148.7,415.1,161.1,399,161.1z"/>
	<path class="st0" d="M465.7,178.7c-11.4,0-20.1-7.9-20.1-18.4c0-9.2,4.4-17.3,7.6-23.3c0.9-1.8,2.1-3.8,2.6-5.2
		c-1.7,0.5-4.6,2.1-6.8,5.8c-3.5,5.9-7.4,17-7.4,20c0,4.8-3.1,5.5-5,5.5c-7.5,0-15.6-2.2-15.6-8.3c0-4,4.1-13.9,10.7-29.8
		c5.1-12.2,11.5-27.4,11.5-31.3c0-2.2,1.6-4.7,6-4.7c7.4,0,14,6.2,14,11.1c0,3.5-2.9,10.2-6.6,18.7c0,0,0,0.1,0,0.1
		c3.1-1.4,7-2.7,11-2.7c7,0,11.6,4.1,11.6,10.3c0,4.2-2.1,8.6-4.4,13.2c-2.5,5.1-5,10.5-5,15.9c0,4.6,2.9,7.4,7.8,7.4
		c1.8,0,3-0.4,3.9-0.7c0.7-0.3,1.4-0.5,2.3-0.5c2.3,0,4.1,1.8,4.1,4.1C487.9,170.4,479.3,178.7,465.7,178.7z"/>
	<path class="st1" d="M467.1,155.7c0,5.7,3.7,10.2,10.5,10.2c3.6,0,5.2-1.3,6.2-1.3c0.8,0,1.4,0.6,1.4,1.4c0,2.3-7.1,9.9-19.5,9.9
		c-9.5,0-17.3-6.3-17.3-15.6c0-13.4,10.5-25.1,10.5-29.7c0-1-0.7-1.8-1.8-1.8c-2.2,0-7.1,1.7-10.4,7.4c-3.6,6-7.8,17.5-7.8,21.4
		c0,1.7-0.3,2.7-2.2,2.7c-5.4,0-12.8-1.4-12.8-5.5c0-7.6,22.2-52.5,22.2-61.2c0-1.1,1-1.9,3.2-1.9c6,0,11.2,5.2,11.2,8.4
		c0,4.9-8.9,22.5-8.9,23.9c0,0.2,0.1,0.3,0.3,0.3c0.5,0,8.4-5.4,15.7-5.4c5.7,0,8.8,3,8.8,7.6C476.5,134.4,467.1,144.6,467.1,155.7z
		"/>
	<path class="st0" d="M487.6,163.4c-10.1,0-17.1-6.5-17.1-15.8c0-15.8,16.8-31.3,33.9-31.3c10.4,0,15,5.9,15,11.8
		c0,5.5-4.1,10.2-9.5,13.9c0.1,0,0.2,0,0.4,0c2.5,0,4.6,2.2,4.6,4.7C514.8,150.7,506.6,163.4,487.6,163.4z M505.6,144.5
		c-2.1,1.1-4.3,2-6.5,2.7C502.1,146.9,504.1,145.6,505.6,144.5z M502.4,129.9c-1.3,0.7-3,2.1-4.5,4.1
		C500.1,132.6,501.6,131.1,502.4,129.9z"/>
	<path class="st1" d="M510.2,144.7c0.9,0,1.8,0.9,1.8,1.9c0,2.1-6.5,14-24.5,14c-7.8,0-14.3-4.7-14.3-13.1
		c0-14.2,15.5-28.5,31.2-28.5c8.8,0,12.3,4.6,12.3,9.1c0,8.8-14.4,16.2-24.7,18.1c0.7,2.4,2.5,3.8,5.8,3.8
		C505.5,150,508.5,144.7,510.2,144.7z M492,139.7c7.4-2.1,13.6-7.4,13.6-11c0-1.4-0.8-1.9-1.9-1.9C500,126.7,493.9,132.7,492,139.7z
		"/>
	<path class="st0" d="M525.9,163.2c-7.5,0-15.6-2.2-15.6-8.3c0-4.6,2.6-10.7,5.3-17.2c2.6-6.2,5.3-12.6,5.3-16.7
		c0-2.2,1.6-4.7,6-4.7c5.5,0,9.4,1.8,11.6,5.5c2.8-2.4,7.3-5.5,13-5.5c5.2,0,8.6,3.4,8.6,8.6c0,7.3-8.5,16.9-13.5,16.9
		c-2.3,0-3.9-1.2-4.5-3.4c-0.2-0.6-0.3-1.2-0.4-1.8c-0.1-0.5-0.2-1.4-0.4-1.9c-0.5,0.3-1.5,1.2-2.6,3c-3.8,6.1-7.6,17.3-7.6,20.1
		C530.8,162.5,527.7,163.2,525.9,163.2z"/>
	<path class="st1" d="M551.3,119.1c3.6,0,5.8,2.1,5.8,5.8c0,6-7.4,14.1-10.8,14.1c-1.1,0-1.6-0.5-1.8-1.4c-0.6-1.8-0.5-6-3.2-6
		c-1.3,0-3.3,1.3-5.3,4.5c-3.8,6.1-8,17.9-8,21.5c0,1.7-0.3,2.7-2.2,2.7c-5.4,0-12.8-1.4-12.8-5.5c0-8.2,10.5-24.7,10.5-33.9
		c0-1.1,1-1.9,3.2-1.9c10.2,0,10.1,7.3,10.5,7.3C537.8,126.4,543.5,119.1,551.3,119.1z"/>
	<g>
		<g>
			<path class="st0" d="M286.8,259.1c-1,0.6-2.1,1.1-3.3,1.4c-1.2,0.3-2.4,0.4-3.8,0.4c-1.4,0-2.7-0.2-3.8-0.7s-2.2-1.2-3-2
				c-0.9-0.9-1.5-1.9-2-3c-0.5-1.2-0.7-2.4-0.7-3.8c0-1.3,0.2-2.5,0.6-3.6c0.4-1.1,1-2.1,1.8-2.9c0.8-0.8,1.7-1.5,2.8-1.9
				c1.1-0.5,2.3-0.7,3.6-0.7c1.7,0,3,0.2,4.1,0.7c1.1,0.4,1.8,0.9,2.3,1.5c0.2,0.2,0.3,0.5,0.4,0.8c0.1,0.3,0.2,0.6,0.2,0.9
				c0,0.3,0.1,0.7,0.1,1c0,0.3,0,0.7,0,1h-0.8c-0.3-1.6-1-2.8-1.9-3.6c-0.9-0.7-2.1-1.1-3.7-1.1c-1.1,0-2,0.2-2.7,0.7
				c-0.7,0.4-1.3,1-1.8,1.7c-0.5,0.7-0.8,1.6-1,2.5c-0.2,0.9-0.3,1.9-0.3,2.9c0,1.6,0.2,3,0.5,4.1c0.3,1.1,0.7,2,1.3,2.6
				c0.5,0.7,1.2,1.1,1.9,1.4c0.7,0.3,1.5,0.4,2.3,0.4c0.8,0,1.5-0.1,2-0.2c0.6-0.1,1.1-0.3,1.5-0.5v-4.7c0-0.4,0.1-0.7,0.2-1.1
				c0.1-0.4,0.4-0.7,0.7-1c0.4-0.3,0.9-0.6,1.6-0.8c0.7-0.2,1.6-0.3,2.7-0.3v0.7c-0.6,0-1,0.2-1.3,0.7c-0.3,0.4-0.4,1.1-0.4,1.9
				V259.1z"/>
			<path class="st0" d="M296.6,252.3h-1.1v8H292v-14.1c0-0.8-0.1-1.4-0.3-1.9c-0.2-0.5-0.7-0.7-1.5-0.7h-0.3v-0.8l7.3,0
				c0.4,0,0.9,0,1.4,0.1c0.5,0,1,0.1,1.6,0.2c0.5,0.1,1.1,0.3,1.6,0.5c0.5,0.2,1,0.5,1.3,0.9c0.4,0.4,0.7,0.8,0.9,1.3
				c0.2,0.5,0.4,1.1,0.4,1.9c0,0.7-0.1,1.3-0.4,1.8c-0.3,0.5-0.6,0.9-1,1.3c-0.4,0.3-0.9,0.6-1.4,0.8c-0.5,0.2-1,0.4-1.5,0.5
				l2.8,4.7c0.3,0.6,0.7,1,1,1.4c0.3,0.4,0.6,0.7,0.9,0.9s0.5,0.4,0.8,0.5c0.2,0.1,0.5,0.2,0.7,0.2v0.7c-0.1,0.1-0.4,0.1-0.8,0.2
				c-0.4,0.1-0.7,0.1-1.1,0.1c-0.5,0-0.9-0.1-1.3-0.2c-0.4-0.1-0.9-0.3-1.3-0.6c-0.4-0.3-0.8-0.7-1.3-1.2c-0.4-0.5-0.8-1.1-1.3-1.8
				L296.6,252.3z M297.3,243.8c-0.2,0-0.4,0-0.6,0c-0.2,0-0.4,0-0.6,0.1c-0.2,0-0.4,0.1-0.5,0.1v7.2h1.6c0.4,0,0.9-0.1,1.3-0.2
				c0.4-0.1,0.8-0.3,1.2-0.6c0.3-0.3,0.6-0.7,0.8-1.1c0.2-0.5,0.3-1.1,0.3-1.8s-0.1-1.3-0.3-1.7c-0.2-0.5-0.5-0.9-0.8-1.1
				c-0.3-0.3-0.7-0.5-1.1-0.6C298.1,243.9,297.7,243.8,297.3,243.8z"/>
			<path class="st0" d="M307.7,251.6c0-1.3,0.2-2.5,0.6-3.7c0.4-1.1,1-2.1,1.8-3c0.8-0.8,1.7-1.5,2.8-2c1.1-0.5,2.3-0.7,3.6-0.7
				c1.3,0,2.5,0.2,3.6,0.7c1.1,0.5,2,1.1,2.8,2c0.8,0.8,1.4,1.8,1.8,3c0.4,1.1,0.6,2.4,0.6,3.7c0,1.3-0.2,2.5-0.6,3.7
				c-0.4,1.1-1,2.1-1.8,3c-0.8,0.8-1.7,1.5-2.8,2c-1.1,0.5-2.3,0.7-3.6,0.7c-1.3,0-2.5-0.2-3.6-0.7c-1.1-0.5-2-1.1-2.8-2
				s-1.4-1.8-1.8-3C307.9,254.1,307.7,252.9,307.7,251.6z M321.6,251.6c0-2.6-0.4-4.6-1.3-6c-0.9-1.4-2.1-2.1-3.8-2.1
				c-1.6,0-2.9,0.7-3.7,2.1c-0.9,1.4-1.3,3.4-1.3,6c0,2.6,0.4,4.6,1.3,6c0.9,1.4,2.1,2.1,3.7,2.1c1.6,0,2.9-0.7,3.8-2.1
				C321.1,256.1,321.6,254.1,321.6,251.6z"/>
			<path class="st0" d="M344.4,255.6l4.5-12.8h1.3l-6.3,17.8h-1.1l-4.1-10.4l-3.6,10.4H334l-5.7-14.7c-0.4-1-0.8-1.7-1.2-2.1
				c-0.4-0.4-0.9-0.6-1.4-0.7v-0.5c0.1,0,0.2,0,0.5,0c0.3,0,0.5,0,0.6,0c0.5,0,0.9,0,1.4,0.1c0.5,0.1,1,0.2,1.4,0.4
				c0.5,0.2,0.9,0.6,1.3,1c0.4,0.5,0.8,1.1,1.1,1.8l3.6,9.2l2.4-6.8l-0.9-2.4c-0.4-1-0.8-1.7-1.3-2.1c-0.5-0.4-1-0.6-1.5-0.7v-0.5
				c0.1,0,0.2,0,0.5,0c0.2,0,0.4,0,0.6,0c0.5,0,0.9,0,1.4,0.1c0.5,0.1,1,0.2,1.5,0.4c0.5,0.2,0.9,0.6,1.3,1c0.4,0.5,0.8,1.1,1.1,1.8
				L344.4,255.6z"/>
			<path class="st0" d="M353.5,242.8h3.5v14.1c0,0.8,0.1,1.4,0.3,1.9c0.2,0.5,0.7,0.7,1.5,0.7h0.3v0.8h-3.2c-0.5,0-0.8-0.1-1.2-0.2
				c-0.3-0.1-0.6-0.3-0.7-0.6c-0.2-0.3-0.3-0.6-0.4-1.1s-0.1-1-0.1-1.7L353.5,242.8z"/>
			<path class="st0" d="M375.4,255v-12.2h1.3v17.6h-1.2l-11.3-13.3v13.2h-1.3l0-14.4c0-0.3,0-0.7-0.1-0.9c-0.1-0.3-0.2-0.5-0.4-0.8
				c-0.2-0.2-0.4-0.4-0.7-0.5c-0.3-0.1-0.7-0.2-1.2-0.2h-0.1v-0.8h1.9c1,0,1.8,0.1,2.5,0.4c0.6,0.3,1.1,0.7,1.6,1.2L375.4,255z"/>
			<path class="st0" d="M397,259.1c-1,0.6-2.1,1.1-3.3,1.4c-1.2,0.3-2.4,0.4-3.8,0.4c-1.4,0-2.7-0.2-3.8-0.7c-1.2-0.5-2.2-1.2-3-2
				c-0.9-0.9-1.5-1.9-2-3c-0.5-1.2-0.7-2.4-0.7-3.8c0-1.3,0.2-2.5,0.6-3.6c0.4-1.1,1-2.1,1.8-2.9c0.8-0.8,1.7-1.5,2.8-1.9
				c1.1-0.5,2.3-0.7,3.6-0.7c1.7,0,3,0.2,4.1,0.7c1.1,0.4,1.8,0.9,2.3,1.5c0.2,0.2,0.3,0.5,0.4,0.8c0.1,0.3,0.2,0.6,0.2,0.9
				c0,0.3,0.1,0.7,0.1,1c0,0.3,0,0.7,0,1h-0.8c-0.3-1.6-1-2.8-1.9-3.6c-0.9-0.7-2.1-1.1-3.7-1.1c-1.1,0-2,0.2-2.7,0.7
				c-0.7,0.4-1.3,1-1.8,1.7c-0.5,0.7-0.8,1.6-1,2.5c-0.2,0.9-0.3,1.9-0.3,2.9c0,1.6,0.2,3,0.5,4.1c0.3,1.1,0.7,2,1.3,2.6
				c0.5,0.7,1.2,1.1,1.9,1.4c0.7,0.3,1.5,0.4,2.3,0.4c0.8,0,1.5-0.1,2-0.2c0.6-0.1,1.1-0.3,1.5-0.5v-4.7c0-0.4,0.1-0.7,0.2-1.1
				c0.1-0.4,0.4-0.7,0.7-1c0.4-0.3,0.9-0.6,1.6-0.8c0.7-0.2,1.6-0.3,2.7-0.3v0.7c-0.6,0-1,0.2-1.3,0.7c-0.3,0.4-0.4,1.1-0.4,1.9
				V259.1z"/>
			<path class="st0" d="M420.4,242.8h3.5v14.1c0,0.8,0.1,1.4,0.3,1.9c0.2,0.5,0.7,0.7,1.5,0.7h0.3v0.8h-3.2c-0.5,0-0.8-0.1-1.2-0.2
				c-0.3-0.1-0.6-0.3-0.7-0.6c-0.2-0.3-0.3-0.6-0.4-1.1c-0.1-0.4-0.1-1-0.1-1.7l0-5.1l-7.2,0v8.5h-3.5v-14.1c0-0.8-0.1-1.4-0.3-1.9
				c-0.2-0.5-0.7-0.7-1.5-0.7h-0.3v-0.8h3.2c0.5,0,0.8,0.1,1.2,0.2c0.3,0.1,0.6,0.3,0.7,0.6c0.2,0.3,0.3,0.6,0.4,1.1
				c0.1,0.4,0.1,1,0.1,1.7v4.4l7.2,0V242.8z"/>
			<path class="st0" d="M442.4,257c0.3,0.8,0.7,1.4,1.2,1.9c0.5,0.5,1,0.7,1.6,0.8v0.7c-0.1,0-0.3,0.1-0.6,0.1s-0.5,0-0.7,0
				c-0.4,0-0.9,0-1.4-0.1c-0.5-0.1-1-0.2-1.4-0.5c-0.5-0.2-0.9-0.6-1.3-1c-0.4-0.5-0.8-1.1-1.1-1.8l-0.6-1.5h-7.1l-2.2,4.8h-1.3
				l7.9-17.6h1.2L442.4,257z M431.5,254.3h6l-2.9-6.9L431.5,254.3z"/>
			<path class="st0" d="M452.9,242.8c0.4,0,0.8,0,1.4,0.1c0.5,0,1,0.1,1.6,0.3c0.5,0.1,1.1,0.3,1.6,0.5c0.5,0.2,1,0.5,1.4,0.9
				c0.4,0.4,0.7,0.9,1,1.5c0.2,0.6,0.4,1.3,0.4,2.1c0,0.8-0.1,1.4-0.4,2c-0.2,0.6-0.6,1-0.9,1.4c-0.4,0.4-0.8,0.7-1.3,0.9
				c-0.5,0.2-1,0.4-1.4,0.5c-0.5,0.1-0.9,0.2-1.3,0.2c-0.4,0-0.8,0.1-1,0.1h-2.5v7.1h-3.5v-14.1c0-0.8-0.1-1.4-0.3-1.9
				c-0.2-0.5-0.7-0.7-1.5-0.7h-0.3v-0.8H452.9z M452.9,243.8c-0.2,0-0.4,0-0.6,0s-0.4,0-0.6,0.1c-0.2,0-0.4,0.1-0.5,0.1v8.1h1.6
				c0.4,0,0.9-0.1,1.3-0.2c0.4-0.1,0.8-0.3,1.2-0.7c0.3-0.3,0.6-0.7,0.8-1.3c0.2-0.5,0.3-1.2,0.3-2s-0.1-1.5-0.3-2
				c-0.2-0.5-0.5-1-0.8-1.3c-0.3-0.3-0.7-0.5-1.1-0.7C453.8,243.9,453.4,243.8,452.9,243.8z"/>
			<path class="st0" d="M469.1,242.8c0.4,0,0.8,0,1.4,0.1c0.5,0,1,0.1,1.6,0.3c0.5,0.1,1.1,0.3,1.6,0.5c0.5,0.2,1,0.5,1.4,0.9
				c0.4,0.4,0.7,0.9,1,1.5s0.4,1.3,0.4,2.1c0,0.8-0.1,1.4-0.4,2c-0.2,0.6-0.6,1-0.9,1.4c-0.4,0.4-0.8,0.7-1.3,0.9
				c-0.5,0.2-1,0.4-1.4,0.5c-0.5,0.1-0.9,0.2-1.3,0.2s-0.8,0.1-1,0.1h-2.5v7.1h-3.5v-14.1c0-0.8-0.1-1.4-0.3-1.9
				c-0.2-0.5-0.7-0.7-1.5-0.7h-0.3v-0.8H469.1z M469.1,243.8c-0.2,0-0.4,0-0.6,0s-0.4,0-0.6,0.1c-0.2,0-0.4,0.1-0.5,0.1l0,8.1h1.6
				c0.4,0,0.9-0.1,1.3-0.2c0.4-0.1,0.8-0.3,1.2-0.7c0.3-0.3,0.6-0.7,0.8-1.3c0.2-0.5,0.3-1.2,0.3-2c0-0.8-0.1-1.5-0.3-2
				c-0.2-0.5-0.5-1-0.8-1.3c-0.3-0.3-0.7-0.5-1.1-0.7C469.9,243.9,469.5,243.8,469.1,243.8z"/>
			<path class="st0" d="M479.6,242.8h3.5v14.1c0,0.8,0.1,1.4,0.3,1.9c0.2,0.5,0.7,0.7,1.5,0.7h0.3v0.8H482c-0.5,0-0.8-0.1-1.2-0.2
				c-0.3-0.1-0.6-0.3-0.7-0.6c-0.2-0.3-0.3-0.6-0.4-1.1c-0.1-0.4-0.1-1-0.1-1.7V242.8z"/>
			<path class="st0" d="M501.5,255v-12.2h1.3v17.6h-1.2l-11.3-13.3v13.2H489V246c0-0.3,0-0.7-0.1-0.9c-0.1-0.3-0.2-0.5-0.4-0.8
				s-0.4-0.4-0.7-0.5c-0.3-0.1-0.7-0.2-1.2-0.2h-0.1v-0.8h1.9c1,0,1.8,0.1,2.5,0.4c0.6,0.3,1.1,0.7,1.6,1.2L501.5,255z"/>
			<path class="st0" d="M517.8,242.8c0.5,0,0.8,0.1,1.1,0.2c0.3,0.1,0.5,0.3,0.7,0.5c0.2,0.2,0.3,0.4,0.3,0.7
				c0.1,0.3,0.1,0.5,0.1,0.8v2.3h-0.8c0-1.1-0.3-2-0.9-2.4c-0.6-0.5-1.4-0.7-2.5-0.7h-4.3v6.7h6.9v1.2l-6.9,0v7.3h4.6
				c1,0,1.8-0.2,2.5-0.7c0.7-0.4,1.3-1.2,1.7-2.4l0.7,0.3l-0.8,2.1c-0.2,0.6-0.4,1-0.8,1.4c-0.3,0.3-0.8,0.5-1.6,0.5h-9.8v-14.1
				c0-0.8-0.1-1.4-0.3-1.9c-0.2-0.5-0.7-0.7-1.5-0.7H506v-0.8H517.8z"/>
			<path class="st0" d="M529.7,260.8c-0.7,0-1.5-0.1-2.2-0.2c-0.7-0.1-1.4-0.4-1.9-0.6c-0.6-0.3-1-0.6-1.4-1
				c-0.4-0.4-0.5-0.8-0.5-1.3v-3.1h0.8c0.3,1.8,0.9,3.2,1.7,3.9c0.9,0.8,2,1.2,3.5,1.2c1,0,1.8-0.2,2.4-0.7c0.6-0.4,0.9-1.1,0.9-1.9
				c0-0.8-0.2-1.4-0.7-1.9c-0.5-0.5-1.2-1-2-1.5l-3.3-2c-1.2-0.7-2.1-1.4-2.6-2.2c-0.5-0.7-0.7-1.6-0.7-2.6c0-1.4,0.5-2.5,1.6-3.3
				s2.5-1.2,4.4-1.2c0.7,0,1.5,0.1,2.2,0.2c0.7,0.1,1.4,0.4,1.9,0.6c0.6,0.3,1,0.6,1.4,1c0.4,0.4,0.5,0.8,0.5,1.3v3.1h-0.8
				c-0.3-1.8-0.9-3.2-1.7-3.9c-0.8-0.8-1.9-1.2-3.3-1.2c-1,0-1.7,0.2-2.3,0.7c-0.6,0.5-0.8,1.1-0.8,1.9c0,0.4,0.1,0.7,0.2,1
				c0.1,0.3,0.3,0.6,0.6,0.8c0.2,0.2,0.5,0.5,0.9,0.7c0.3,0.2,0.7,0.5,1.1,0.7l3.3,1.9c1.2,0.7,2.1,1.4,2.6,2.1
				c0.6,0.7,0.8,1.5,0.8,2.5c0,1.5-0.6,2.7-1.7,3.6C533.5,260.3,531.8,260.8,529.7,260.8z"/>
			<path class="st0" d="M545.4,260.8c-0.7,0-1.5-0.1-2.2-0.2c-0.7-0.1-1.4-0.4-1.9-0.6c-0.6-0.3-1-0.6-1.4-1s-0.5-0.8-0.5-1.3v-3.1
				h0.8c0.3,1.8,0.9,3.2,1.7,3.9c0.9,0.8,2,1.2,3.5,1.2c1,0,1.8-0.2,2.4-0.7c0.6-0.4,0.9-1.1,0.9-1.9c0-0.8-0.2-1.4-0.7-1.9
				c-0.5-0.5-1.2-1-2-1.5l-3.3-2c-1.2-0.7-2.1-1.4-2.6-2.2c-0.5-0.7-0.7-1.6-0.7-2.6c0-1.4,0.5-2.5,1.6-3.3s2.5-1.2,4.4-1.2
				c0.7,0,1.5,0.1,2.2,0.2c0.7,0.1,1.4,0.4,1.9,0.6c0.6,0.3,1,0.6,1.4,1c0.4,0.4,0.5,0.8,0.5,1.3v3.1h-0.8c-0.3-1.8-0.9-3.2-1.7-3.9
				c-0.8-0.8-1.9-1.2-3.3-1.2c-1,0-1.7,0.2-2.3,0.7c-0.6,0.5-0.8,1.1-0.8,1.9c0,0.4,0.1,0.7,0.2,1c0.1,0.3,0.3,0.6,0.6,0.8
				c0.2,0.2,0.5,0.5,0.9,0.7c0.3,0.2,0.7,0.5,1.1,0.7l3.3,1.9c1.2,0.7,2.1,1.4,2.6,2.1c0.6,0.7,0.8,1.5,0.8,2.5
				c0,1.5-0.6,2.7-1.7,3.6C549.2,260.3,547.5,260.8,545.4,260.8z"/>
			<path class="st0" d="M558.5,259.1c0,0.5-0.1,0.9-0.4,1.2c-0.3,0.3-0.7,0.5-1.2,0.5c-0.5,0-0.9-0.2-1.2-0.5
				c-0.3-0.3-0.4-0.7-0.4-1.2c0-0.5,0.1-0.9,0.4-1.2c0.3-0.3,0.7-0.5,1.2-0.5c0.5,0,0.9,0.2,1.2,0.5
				C558.3,258.2,558.5,258.6,558.5,259.1z"/>
		</g>
	</g>
	<g>
		<g>
			<path class="st0" d="M566.1,76.1h-2.3v6.4h-1.3v-6.4h-2.3v-1.2l5.9,0V76.1z"/>
			<path class="st0" d="M575.2,74.8v7.7h-1.3v-5.6l-2.3,4.1h-0.7l-2.3-4.1v5.6h-1.3v-7.7h1.6l2.4,4.2l2.4-4.2H575.2z"/>
		</g>
	</g>
</g>
</svg>